<svg xmlns="http://www.w3.org/2000/svg" viewBox="0 0 24 24"><path d="m21,13.41406l-3.29297,3.29297c-.19531.19531-.45117.29297-.70703.29297s-.51172-.09766-.70703-.29297c-.39062-.39062-.39062-1.02344,0-1.41406l3.29297-3.29297-3.29297-3.29297c-.39062-.39062-.39062-1.02344,0-1.41406s1.02344-.39062,1.41406,0l3.29297,3.29297c.78027.77979.78027,2.04834,0,2.82812Zm-6.72559-9.37549c-.52734-.15234-1.08398.15527-1.23633.68652l-4,14c-.15137.53125.15625,1.08447.6875,1.23633.0918.02637.18359.03906.27539.03906.43457,0,.83496-.28662.96094-.72559l4-14c.15137-.53125-.15625-1.08447-.6875-1.23633Zm-6.56738,3.25439c-.39062-.39062-1.02344-.39062-1.41406,0l-3.29297,3.29297c-.78027.77979-.78027,2.04834,0,2.82812l3.29297,3.29297c.19531.19531.45117.29297.70703.29297s.51172-.09766.70703-.29297c.39062-.39062.39062-1.02344,0-1.41406l-3.29297-3.29297,3.29297-3.29297c.39062-.39062.39062-1.02344,0-1.41406Z"/></svg>