<svg xmlns="http://www.w3.org/2000/svg" viewBox="10 5 80 80">
 <g>
  <path d="m72.281 69h-44.562c-1.6602 0-3 1.3398-3 3s1.3398 3 3 3h44.559c1.6602 0 3-1.3398 3-3 0.003906-1.6602-1.3359-3-2.9961-3z"/>
  <path d="m50 19c-1.6602 0-3 1.3398-3 3v29.762l-11.879-11.883c-1.1719-1.1719-3.0703-1.1719-4.2383 0-1.1719 1.1719-1.1719 3.0703 0 4.2383l17 17c0.57813 0.59375 1.3477 0.88281 2.1172 0.88281s1.5391-0.28906 2.1211-0.87891l17-17c1.1719-1.1719 1.1719-3.0703 0-4.2383-1.1719-1.1719-3.0703-1.1719-4.2383 0l-11.883 11.879v-29.762c0-1.6602-1.3398-3-3-3z"/>
 </g>
</svg>